<svg width="229" height="35" viewBox="0 0 229 35" fill="none" xmlns="http://www.w3.org/2000/svg">
<path d="M10.502 24.5H17.5033V35H0V17.5H10.502V24.5ZM17.5033 17.5H28.0052V24.5H17.5033V17.5H10.502V7H17.5033V17.5ZM35.0065 17.5H28.0052V7H17.5033V0H35.0065V17.5Z" fill="#00CA43"/>
<path d="M42.932 28V8.4H52.2297C53.91 8.4 55.4036 8.652 56.7106 9.156C58.0175 9.66 59.119 10.36 60.0152 11.256C60.9113 12.152 61.5835 13.1973 62.0315 14.392C62.4983 15.568 62.7317 16.8373 62.7317 18.2C62.7317 19.5813 62.4983 20.8693 62.0315 22.064C61.5835 23.24 60.9113 24.276 60.0152 25.172C59.119 26.0493 58.0175 26.74 56.7106 27.244C55.4036 27.748 53.91 28 52.2297 28H42.932ZM45.9566 25.396L45.8725 25.088H52.0897C53.3779 25.088 54.4888 24.92 55.4223 24.584C56.3558 24.2293 57.1213 23.744 57.7187 23.128C58.3349 22.512 58.7923 21.784 59.091 20.944C59.3897 20.104 59.5391 19.1893 59.5391 18.2C59.5391 17.2293 59.3897 16.3333 59.091 15.512C58.7923 14.672 58.3349 13.944 57.7187 13.328C57.1213 12.6933 56.3558 12.1987 55.4223 11.844C54.4888 11.4893 53.3779 11.312 52.0897 11.312H45.7885L45.9566 11.06V25.396Z" fill="white"/>
<path d="M73.0019 34.44L76.6986 27.608V29.82L67.933 13.3H71.2936L75.7184 22.12C76.2412 23.072 76.6893 23.9493 77.0627 24.752C77.4361 25.5547 77.6881 26.2733 77.8188 26.908L77.3427 26.936C77.5854 26.32 77.8842 25.6013 78.2389 24.78C78.5936 23.9587 79.0137 23.0533 79.4991 22.064L83.5879 13.3H86.9765L79.3031 28.112L76.1105 34.44H73.0019Z" fill="white"/>
<path d="M94.2522 28V13.3H97.1367V17.136L96.2126 17.276C96.586 16.5667 97.0901 15.8947 97.7248 15.26C98.3596 14.6067 99.1158 14.0653 99.9933 13.636C100.889 13.2067 101.879 12.992 102.962 12.992C104.381 12.992 105.566 13.2627 106.518 13.804C107.471 14.3267 108.189 15.064 108.675 16.016C109.16 16.9493 109.403 18.0227 109.403 19.236V28H106.518V19.628C106.518 18.8067 106.322 18.0973 105.93 17.5C105.557 16.9027 105.044 16.4453 104.39 16.128C103.755 15.8107 103.027 15.652 102.206 15.652C101.459 15.652 100.777 15.7827 100.161 16.044C99.5452 16.3053 99.0037 16.6507 98.537 17.08C98.0889 17.4907 97.7435 17.948 97.5008 18.452C97.2581 18.9373 97.1367 19.4227 97.1367 19.908V28H95.7085C95.279 28 94.943 28 94.7003 28C94.4576 28 94.3082 28 94.2522 28Z" fill="white"/>
<path d="M125.239 28.28C123.615 28.28 122.186 27.9533 120.954 27.3C119.741 26.628 118.788 25.7133 118.098 24.556C117.425 23.3987 117.089 22.092 117.089 20.636C117.089 19.1427 117.444 17.8267 118.154 16.688C118.882 15.5307 119.871 14.6253 121.122 13.972C122.373 13.3187 123.811 12.992 125.435 12.992C126.424 12.992 127.339 13.1133 128.179 13.356C129.038 13.5987 129.776 13.9253 130.392 14.336C131.027 14.7467 131.521 15.1947 131.876 15.68C132.25 16.1653 132.446 16.6507 132.464 17.136L131.68 17.108V13.3H134.593V28H131.68V24.108L132.268 24.192C132.25 24.6587 132.044 25.1347 131.652 25.62C131.26 26.0867 130.737 26.5253 130.084 26.936C129.43 27.328 128.684 27.6547 127.843 27.916C127.022 28.1587 126.154 28.28 125.239 28.28ZM125.911 25.62C127.069 25.62 128.086 25.4053 128.964 24.976C129.86 24.528 130.551 23.9307 131.036 23.184C131.54 22.4187 131.792 21.5693 131.792 20.636C131.792 19.684 131.54 18.8347 131.036 18.088C130.551 17.3413 129.86 16.7533 128.964 16.324C128.086 15.8947 127.069 15.68 125.911 15.68C124.772 15.68 123.755 15.8947 122.858 16.324C121.981 16.7533 121.29 17.3413 120.786 18.088C120.282 18.8347 120.03 19.684 120.03 20.636C120.03 21.5693 120.282 22.4187 120.786 23.184C121.29 23.9307 121.981 24.528 122.858 24.976C123.755 25.4053 124.772 25.62 125.911 25.62Z" fill="white"/>
<path d="M152.929 28.28C152.051 28.28 151.211 28.1587 150.408 27.916C149.606 27.6733 148.887 27.3653 148.252 26.992C147.636 26.6 147.122 26.1893 146.712 25.76C146.301 25.312 146.04 24.9013 145.928 24.528L147.076 24.332V27.916H144.191V7.28H147.076V16.66L146.208 16.604C146.32 16.212 146.572 15.8107 146.964 15.4C147.356 14.9893 147.86 14.6067 148.476 14.252C149.092 13.8787 149.783 13.58 150.548 13.356C151.333 13.1133 152.163 12.992 153.041 12.992C154.59 12.992 155.981 13.3187 157.214 13.972C158.464 14.6253 159.454 15.5213 160.182 16.66C160.929 17.7987 161.302 19.1147 161.302 20.608C161.302 22.0827 160.938 23.3987 160.21 24.556C159.501 25.7133 158.511 26.628 157.242 27.3C155.991 27.9533 154.553 28.28 152.929 28.28ZM152.649 25.62C153.788 25.62 154.796 25.4053 155.673 24.976C156.551 24.528 157.242 23.9307 157.746 23.184C158.25 22.4187 158.502 21.56 158.502 20.608C158.502 19.656 158.25 18.8067 157.746 18.06C157.242 17.3133 156.551 16.7253 155.673 16.296C154.796 15.8667 153.788 15.652 152.649 15.652C151.491 15.652 150.464 15.8667 149.568 16.296C148.691 16.7253 147.991 17.3133 147.468 18.06C146.964 18.8067 146.712 19.656 146.712 20.608C146.712 21.56 146.964 22.4187 147.468 23.184C147.991 23.9307 148.691 24.528 149.568 24.976C150.464 25.4053 151.491 25.62 152.649 25.62Z" fill="white"/>
<path d="M175.096 28.28C173.471 28.28 172.043 27.9533 170.811 27.3C169.597 26.628 168.645 25.7133 167.954 24.556C167.282 23.3987 166.946 22.092 166.946 20.636C166.946 19.1427 167.301 17.8267 168.01 16.688C168.739 15.5307 169.728 14.6253 170.979 13.972C172.23 13.3187 173.668 12.992 175.292 12.992C176.281 12.992 177.196 13.1133 178.036 13.356C178.895 13.5987 179.633 13.9253 180.249 14.336C180.884 14.7467 181.378 15.1947 181.733 15.68C182.106 16.1653 182.302 16.6507 182.321 17.136L181.537 17.108V13.3H184.45V28H181.537V24.108L182.125 24.192C182.106 24.6587 181.901 25.1347 181.509 25.62C181.117 26.0867 180.594 26.5253 179.941 26.936C179.287 27.328 178.54 27.6547 177.7 27.916C176.879 28.1587 176.011 28.28 175.096 28.28ZM175.768 25.62C176.925 25.62 177.943 25.4053 178.82 24.976C179.717 24.528 180.407 23.9307 180.893 23.184C181.397 22.4187 181.649 21.5693 181.649 20.636C181.649 19.684 181.397 18.8347 180.893 18.088C180.407 17.3413 179.717 16.7533 178.82 16.324C177.943 15.8947 176.925 15.68 175.768 15.68C174.629 15.68 173.612 15.8947 172.715 16.324C171.838 16.7533 171.147 17.3413 170.643 18.088C170.139 18.8347 169.887 19.684 169.887 20.636C169.887 21.5693 170.139 22.4187 170.643 23.184C171.147 23.9307 171.838 24.528 172.715 24.976C173.612 25.4053 174.629 25.62 175.768 25.62Z" fill="white"/>
<path d="M199.397 28.28C197.81 28.28 196.363 28.0653 195.056 27.636C193.749 27.2067 192.657 26.5067 191.78 25.536L193.74 23.744C194.431 24.4347 195.234 24.9667 196.149 25.34C197.082 25.6947 198.109 25.872 199.229 25.872C199.677 25.872 200.125 25.844 200.573 25.788C201.04 25.732 201.479 25.6387 201.89 25.508C202.3 25.3587 202.627 25.1627 202.87 24.92C203.131 24.6773 203.262 24.3787 203.262 24.024C203.262 23.4267 202.823 22.988 201.946 22.708C201.516 22.5587 201.021 22.4187 200.461 22.288C199.901 22.1573 199.285 22.036 198.613 21.924C197.493 21.7 196.485 21.4573 195.588 21.196C194.711 20.916 193.983 20.552 193.404 20.104C192.993 19.768 192.676 19.3667 192.452 18.9C192.228 18.4333 192.116 17.8827 192.116 17.248C192.116 16.5947 192.293 16.016 192.648 15.512C193.003 14.9893 193.488 14.5413 194.104 14.168C194.72 13.776 195.439 13.4867 196.261 13.3C197.101 13.0947 198.006 12.992 198.977 12.992C199.78 12.992 200.62 13.076 201.497 13.244C202.394 13.412 203.234 13.6733 204.018 14.028C204.821 14.364 205.493 14.8027 206.034 15.344L204.466 17.276C203.999 16.9213 203.449 16.5947 202.814 16.296C202.198 15.9973 201.553 15.7733 200.881 15.624C200.228 15.456 199.602 15.372 199.005 15.372C198.557 15.372 198.1 15.4 197.633 15.456C197.166 15.512 196.727 15.6053 196.317 15.736C195.924 15.8667 195.607 16.0533 195.364 16.296C195.122 16.52 195 16.8 195 17.136C195 17.36 195.066 17.5653 195.196 17.752C195.327 17.9387 195.504 18.1067 195.728 18.256C196.12 18.4987 196.643 18.7133 197.297 18.9C197.969 19.068 198.716 19.2267 199.537 19.376C200.545 19.5627 201.488 19.7773 202.366 20.02C203.243 20.2627 203.99 20.5893 204.606 21C205.092 21.3173 205.465 21.6907 205.726 22.12C205.988 22.5307 206.118 23.0253 206.118 23.604C206.118 24.5933 205.81 25.4427 205.194 26.152C204.597 26.8427 203.794 27.3747 202.786 27.748C201.778 28.1027 200.648 28.28 199.397 28.28Z" fill="white"/>
<path d="M220.961 28.28C219.15 28.28 217.535 27.9627 216.116 27.328C214.697 26.6747 213.587 25.788 212.784 24.668C212 23.5293 211.608 22.2413 211.608 20.804C211.608 19.5907 211.841 18.508 212.308 17.556C212.774 16.5853 213.428 15.764 214.268 15.092C215.108 14.42 216.079 13.8973 217.181 13.524C218.301 13.1507 219.477 12.964 220.709 12.964C221.867 12.964 222.95 13.1413 223.958 13.496C224.966 13.8507 225.853 14.3453 226.618 14.98C227.384 15.6147 227.972 16.3707 228.383 17.248C228.812 18.1067 229.017 19.0587 228.999 20.104L228.971 21.532H214.128L213.484 19.236H226.478L226.058 19.516V18.844C225.965 18.2093 225.657 17.6493 225.134 17.164C224.611 16.6787 223.958 16.3053 223.174 16.044C222.408 15.764 221.587 15.624 220.709 15.624C219.514 15.624 218.441 15.792 217.489 16.128C216.555 16.464 215.818 16.996 215.276 17.724C214.735 18.452 214.464 19.4133 214.464 20.608C214.464 21.616 214.754 22.5027 215.332 23.268C215.93 24.0147 216.751 24.5933 217.797 25.004C218.861 25.4147 220.074 25.62 221.437 25.62C222.744 25.62 223.837 25.4427 224.714 25.088C225.61 24.7333 226.376 24.3413 227.01 23.912L228.327 26.04C227.804 26.4507 227.141 26.824 226.338 27.16C225.554 27.496 224.695 27.7667 223.762 27.972C222.847 28.1773 221.914 28.28 220.961 28.28Z" fill="white"/>
</svg>
