<svg width="131" height="20" viewBox="0 0 131 20" fill="none" xmlns="http://www.w3.org/2000/svg">
<path d="M6 14H10V20H0V10H6V14ZM10 10H16V14H10V10H6V4H10V10ZM20 10H16V4H10V0H20V10Z" fill="#00CA43"/>
<path d="M24.528 16V4.8H29.84C30.8 4.8 31.6533 4.944 32.4 5.232C33.1467 5.52 33.776 5.92 34.288 6.432C34.8 6.944 35.184 7.54133 35.44 8.224C35.7067 8.896 35.84 9.62133 35.84 10.4C35.84 11.1893 35.7067 11.9253 35.44 12.608C35.184 13.28 34.8 13.872 34.288 14.384C33.776 14.8853 33.1467 15.28 32.4 15.568C31.6533 15.856 30.8 16 29.84 16H24.528ZM26.256 14.512L26.208 14.336H29.76C30.496 14.336 31.1307 14.24 31.664 14.048C32.1973 13.8453 32.6347 13.568 32.976 13.216C33.328 12.864 33.5893 12.448 33.76 11.968C33.9307 11.488 34.016 10.9653 34.016 10.4C34.016 9.84533 33.9307 9.33333 33.76 8.864C33.5893 8.384 33.328 7.968 32.976 7.616C32.6347 7.25333 32.1973 6.97067 31.664 6.768C31.1307 6.56533 30.496 6.464 29.76 6.464H26.16L26.256 6.32V14.512Z" fill="#535353"/>
<path d="M41.7076 19.68L43.8196 15.776V17.04L38.8116 7.6H40.7316L43.2596 12.64C43.5583 13.184 43.8143 13.6853 44.0276 14.144C44.241 14.6027 44.385 15.0133 44.4596 15.376L44.1876 15.392C44.3263 15.04 44.497 14.6293 44.6996 14.16C44.9023 13.6907 45.1423 13.1733 45.4196 12.608L47.7556 7.6H49.6916L45.3076 16.064L43.4836 19.68H41.7076Z" fill="#535353"/>
<path d="M53.8484 16V7.6H55.4964V9.792L54.9684 9.872C55.1817 9.46667 55.4697 9.08267 55.8324 8.72C56.195 8.34667 56.627 8.03733 57.1284 7.792C57.6404 7.54667 58.2057 7.424 58.8244 7.424C59.635 7.424 60.3124 7.57867 60.8564 7.888C61.4004 8.18667 61.811 8.608 62.0884 9.152C62.3657 9.68533 62.5044 10.2987 62.5044 10.992V16H60.8564V11.216C60.8564 10.7467 60.7444 10.3413 60.5204 10C60.307 9.65867 60.0137 9.39733 59.6404 9.216C59.2777 9.03467 58.8617 8.944 58.3924 8.944C57.9657 8.944 57.5764 9.01867 57.2244 9.168C56.8724 9.31733 56.563 9.51467 56.2964 9.76C56.0404 9.99467 55.843 10.256 55.7044 10.544C55.5657 10.8213 55.4964 11.0987 55.4964 11.376V16H54.6804C54.435 16 54.243 16 54.1044 16C53.9657 16 53.8804 16 53.8484 16Z" fill="#535353"/>
<path d="M71.5518 16.16C70.6238 16.16 69.8078 15.9733 69.1038 15.6C68.4104 15.216 67.8664 14.6933 67.4717 14.032C67.0877 13.3707 66.8958 12.624 66.8958 11.792C66.8958 10.9387 67.0984 10.1867 67.5038 9.536C67.9198 8.87467 68.4851 8.35733 69.1998 7.984C69.9144 7.61067 70.7357 7.424 71.6637 7.424C72.2291 7.424 72.7518 7.49333 73.2318 7.632C73.7224 7.77067 74.1438 7.95733 74.4958 8.192C74.8584 8.42667 75.1411 8.68267 75.3438 8.96C75.5571 9.23733 75.6691 9.51467 75.6797 9.792L75.2318 9.776V7.6H76.8958V16H75.2318V13.776L75.5677 13.824C75.5571 14.0907 75.4398 14.3627 75.2158 14.64C74.9918 14.9067 74.6931 15.1573 74.3197 15.392C73.9464 15.616 73.5197 15.8027 73.0397 15.952C72.5704 16.0907 72.0744 16.16 71.5518 16.16ZM71.9358 14.64C72.5971 14.64 73.1784 14.5173 73.6797 14.272C74.1917 14.016 74.5864 13.6747 74.8638 13.248C75.1518 12.8107 75.2958 12.3253 75.2958 11.792C75.2958 11.248 75.1518 10.7627 74.8638 10.336C74.5864 9.90933 74.1917 9.57333 73.6797 9.328C73.1784 9.08267 72.5971 8.96 71.9358 8.96C71.2851 8.96 70.7037 9.08267 70.1917 9.328C69.6904 9.57333 69.2958 9.90933 69.0078 10.336C68.7198 10.7627 68.5758 11.248 68.5758 11.792C68.5758 12.3253 68.7198 12.8107 69.0078 13.248C69.2958 13.6747 69.6904 14.016 70.1917 14.272C70.7037 14.5173 71.2851 14.64 71.9358 14.64Z" fill="#535353"/>
<path d="M87.3716 16.16C86.8703 16.16 86.3903 16.0907 85.9316 15.952C85.473 15.8133 85.0623 15.6373 84.6996 15.424C84.3476 15.2 84.0543 14.9653 83.8196 14.72C83.585 14.464 83.4356 14.2293 83.3716 14.016L84.0276 13.904V15.952H82.3796V4.16H84.0276V9.52L83.5316 9.488C83.5956 9.264 83.7396 9.03467 83.9636 8.8C84.1876 8.56533 84.4756 8.34667 84.8276 8.144C85.1796 7.93067 85.5743 7.76 86.0116 7.632C86.4596 7.49333 86.9343 7.424 87.4356 7.424C88.321 7.424 89.1156 7.61067 89.8196 7.984C90.5343 8.35733 91.0996 8.86933 91.5156 9.52C91.9423 10.1707 92.1556 10.9227 92.1556 11.776C92.1556 12.6187 91.9476 13.3707 91.5316 14.032C91.1263 14.6933 90.561 15.216 89.8356 15.6C89.121 15.9733 88.2996 16.16 87.3716 16.16ZM87.2116 14.64C87.8623 14.64 88.4383 14.5173 88.9396 14.272C89.441 14.016 89.8356 13.6747 90.1236 13.248C90.4116 12.8107 90.5556 12.32 90.5556 11.776C90.5556 11.232 90.4116 10.7467 90.1236 10.32C89.8356 9.89333 89.441 9.55733 88.9396 9.312C88.4383 9.06667 87.8623 8.944 87.2116 8.944C86.5503 8.944 85.9636 9.06667 85.4516 9.312C84.9503 9.55733 84.5503 9.89333 84.2516 10.32C83.9636 10.7467 83.8196 11.232 83.8196 11.776C83.8196 12.32 83.9636 12.8107 84.2516 13.248C84.5503 13.6747 84.9503 14.016 85.4516 14.272C85.9636 14.5173 86.5503 14.64 87.2116 14.64Z" fill="#535353"/>
<path d="M100.036 16.16C99.1081 16.16 98.2921 15.9733 97.5881 15.6C96.8948 15.216 96.3508 14.6933 95.9561 14.032C95.5721 13.3707 95.3801 12.624 95.3801 11.792C95.3801 10.9387 95.5828 10.1867 95.9881 9.536C96.4041 8.87467 96.9695 8.35733 97.6841 7.984C98.3988 7.61067 99.2201 7.424 100.148 7.424C100.713 7.424 101.236 7.49333 101.716 7.632C102.207 7.77067 102.628 7.95733 102.98 8.192C103.343 8.42667 103.625 8.68267 103.828 8.96C104.041 9.23733 104.153 9.51467 104.164 9.792L103.716 9.776V7.6H105.38V16H103.716V13.776L104.052 13.824C104.041 14.0907 103.924 14.3627 103.7 14.64C103.476 14.9067 103.177 15.1573 102.804 15.392C102.431 15.616 102.004 15.8027 101.524 15.952C101.055 16.0907 100.559 16.16 100.036 16.16ZM100.42 14.64C101.081 14.64 101.663 14.5173 102.164 14.272C102.676 14.016 103.071 13.6747 103.348 13.248C103.636 12.8107 103.78 12.3253 103.78 11.792C103.78 11.248 103.636 10.7627 103.348 10.336C103.071 9.90933 102.676 9.57333 102.164 9.328C101.663 9.08267 101.081 8.96 100.42 8.96C99.7695 8.96 99.1881 9.08267 98.6761 9.328C98.1748 9.57333 97.7801 9.90933 97.4921 10.336C97.2041 10.7627 97.0601 11.248 97.0601 11.792C97.0601 12.3253 97.2041 12.8107 97.4921 13.248C97.7801 13.6747 98.1748 14.016 98.6761 14.272C99.1881 14.5173 99.7695 14.64 100.42 14.64Z" fill="#535353"/>
<path d="M113.92 16.16C113.013 16.16 112.187 16.0373 111.44 15.792C110.693 15.5467 110.069 15.1467 109.568 14.592L110.688 13.568C111.083 13.9627 111.541 14.2667 112.064 14.48C112.597 14.6827 113.184 14.784 113.824 14.784C114.08 14.784 114.336 14.768 114.592 14.736C114.859 14.704 115.109 14.6507 115.344 14.576C115.579 14.4907 115.765 14.3787 115.904 14.24C116.053 14.1013 116.128 13.9307 116.128 13.728C116.128 13.3867 115.877 13.136 115.376 12.976C115.131 12.8907 114.848 12.8107 114.528 12.736C114.208 12.6613 113.856 12.592 113.472 12.528C112.832 12.4 112.256 12.2613 111.744 12.112C111.243 11.952 110.827 11.744 110.496 11.488C110.261 11.296 110.08 11.0667 109.952 10.8C109.824 10.5333 109.76 10.2187 109.76 9.856C109.76 9.48267 109.861 9.152 110.064 8.864C110.267 8.56533 110.544 8.30933 110.896 8.096C111.248 7.872 111.659 7.70667 112.128 7.6C112.608 7.48267 113.125 7.424 113.68 7.424C114.139 7.424 114.619 7.472 115.12 7.568C115.632 7.664 116.112 7.81333 116.56 8.016C117.019 8.208 117.403 8.45867 117.712 8.768L116.816 9.872C116.549 9.66933 116.235 9.48267 115.872 9.312C115.52 9.14133 115.152 9.01333 114.768 8.928C114.395 8.832 114.037 8.784 113.696 8.784C113.44 8.784 113.179 8.8 112.912 8.832C112.645 8.864 112.395 8.91733 112.16 8.992C111.936 9.06667 111.755 9.17333 111.616 9.312C111.477 9.44 111.408 9.6 111.408 9.792C111.408 9.92 111.445 10.0373 111.52 10.144C111.595 10.2507 111.696 10.3467 111.824 10.432C112.048 10.5707 112.347 10.6933 112.72 10.8C113.104 10.896 113.531 10.9867 114 11.072C114.576 11.1787 115.115 11.3013 115.616 11.44C116.117 11.5787 116.544 11.7653 116.896 12C117.173 12.1813 117.387 12.3947 117.536 12.64C117.685 12.8747 117.76 13.1573 117.76 13.488C117.76 14.0533 117.584 14.5387 117.232 14.944C116.891 15.3387 116.432 15.6427 115.856 15.856C115.28 16.0587 114.635 16.16 113.92 16.16Z" fill="#535353"/>
<path d="M126.24 16.16C125.205 16.16 124.283 15.9787 123.472 15.616C122.661 15.2427 122.027 14.736 121.568 14.096C121.12 13.4453 120.896 12.7093 120.896 11.888C120.896 11.1947 121.029 10.576 121.296 10.032C121.563 9.47733 121.936 9.008 122.416 8.624C122.896 8.24 123.451 7.94133 124.08 7.728C124.72 7.51467 125.392 7.408 126.096 7.408C126.757 7.408 127.376 7.50933 127.952 7.712C128.528 7.91467 129.035 8.19733 129.472 8.56C129.909 8.92267 130.245 9.35467 130.48 9.856C130.725 10.3467 130.843 10.8907 130.832 11.488L130.816 12.304H122.336L121.968 10.992H129.392L129.152 11.152V10.768C129.099 10.4053 128.923 10.0853 128.624 9.808C128.325 9.53067 127.952 9.31733 127.504 9.168C127.067 9.008 126.597 8.928 126.096 8.928C125.413 8.928 124.8 9.024 124.256 9.216C123.723 9.408 123.301 9.712 122.992 10.128C122.683 10.544 122.528 11.0933 122.528 11.776C122.528 12.352 122.693 12.8587 123.024 13.296C123.365 13.7227 123.835 14.0533 124.432 14.288C125.04 14.5227 125.733 14.64 126.512 14.64C127.259 14.64 127.883 14.5387 128.384 14.336C128.896 14.1333 129.333 13.9093 129.696 13.664L130.448 14.88C130.149 15.1147 129.771 15.328 129.312 15.52C128.864 15.712 128.373 15.8667 127.84 15.984C127.317 16.1013 126.784 16.16 126.24 16.16Z" fill="#535353"/>
</svg>
